<svg width="46" height="46" viewBox="0 0 46 46" fill="none" xmlns="http://www.w3.org/2000/svg">
<path d="M22.1771 25.355V32.9695H17.6653H17.5627V33.072V35.1229V35.2254H17.6653H28.9449H29.0474V35.1229V33.072V32.9695H28.9449H24.433V25.355L35.6859 13.0304L35.7127 13.0011V12.9613V10V9.89746H35.6102H11H10.8975V10V12.9613V13.0011L10.9243 13.0304L22.1771 25.355ZM13.1783 12.1534H33.4318L30.3422 15.5373H16.268L13.1783 12.1534ZM18.3277 17.7932H28.2824L23.3202 23.228H23.2899L18.3277 17.7932Z" fill="#FCC436" stroke="#FCC436" stroke-width="0.205085"/>
<path d="M23.3051 26.4067L16.2008 17.1779L30.4094 17.1779L23.3051 26.4067Z" fill="#FCC436"/>
<rect x="0.905605" y="0.905605" width="43.469" height="43.469" rx="21.7345" stroke="#FCC436" stroke-width="1.81121"/>
</svg>
