<svg width="46" height="46" viewBox="0 0 46 46" fill="none" xmlns="http://www.w3.org/2000/svg">
<path d="M33.3142 11.6237C33.2347 11.9064 33.058 12.1185 32.7841 12.2598C32.5103 12.4012 32.2231 12.4365 31.9228 12.3658L28.0269 11.2262L27.2848 14.0885H27.4174C27.647 14.0885 27.8458 14.1724 28.0137 14.3403C28.1815 14.5081 28.2654 14.7069 28.2654 14.9366V34.4424C28.2654 34.9194 28.0976 35.3214 27.7619 35.6483C27.4262 35.9751 27.0287 36.1386 26.5693 36.1386H19.7846C19.3076 36.1386 18.9056 35.9707 18.5788 35.635C18.2519 35.2993 18.0885 34.9018 18.0885 34.4424V19.177C16.675 19.177 15.4736 18.6822 14.4841 17.6928C13.4947 16.7034 13 15.5019 13 14.0885C13 12.675 13.4947 11.4736 14.4841 10.4841C15.4736 9.49471 16.675 9 18.0885 9C19.5019 9 20.7034 9.49471 21.6928 10.4841C22.6822 11.4736 23.177 12.675 23.177 14.0885H25.1116L26.2247 9.84808C26.2954 9.63606 26.3926 9.47263 26.5163 9.35778C26.64 9.24294 26.799 9.16343 26.9933 9.11926C27.1877 9.07509 27.3379 9.04859 27.4439 9.03975C27.5499 9.03092 27.7354 9.0265 28.0004 9.0265L32.5058 10.3516C32.8239 10.4223 33.058 10.5813 33.2082 10.8287C33.3583 11.076 33.3937 11.3411 33.3142 11.6237ZM19.7846 17.0038C20.297 16.7034 20.7034 16.297 21.0038 15.7846H19.7846V17.0038ZM18.0885 10.6962C17.1521 10.6962 16.3526 11.0274 15.69 11.69C15.0274 12.3526 14.6962 13.1521 14.6962 14.0885C14.6962 15.0249 15.0274 15.8244 15.69 16.487C16.3526 17.1495 17.1521 17.4808 18.0885 17.4808V14.9366C18.0885 14.7069 18.1724 14.5081 18.3403 14.3403C18.5081 14.1724 18.7069 14.0885 18.9366 14.0885H21.4808C21.4808 13.1521 21.1495 12.3526 20.487 11.69C19.8244 11.0274 19.0249 10.6962 18.0885 10.6962ZM22.8589 15.7846C22.6116 16.509 22.2185 17.1407 21.6796 17.6796C21.1407 18.2185 20.509 18.6116 19.7846 18.8589V20.8731H23.3095L24.6611 15.7846H22.8589ZM26.5693 16.7917L25.4827 20.8731H26.5693V16.7917Z" fill="#FCC436"/>
<rect x="0.905605" y="0.905605" width="43.469" height="43.469" rx="21.7345" stroke="#FCC436" stroke-width="1.81121"/>
</svg>
