<svg width="42" height="31" viewBox="0 0 42 31" fill="none" xmlns="http://www.w3.org/2000/svg">
<path d="M41.334 7.90386C41.334 4.04507 38.0094 0.00785174 38.0094 1.21871C38.0094 2.42957 38.6243 18.5108 38.6243 18.5108L38.0094 29.0269C38.0094 29.7441 38.5908 30.3255 39.308 30.3255C40.0252 30.3255 40.6066 29.7441 40.6066 29.0269L40.2631 18.4505C40.2631 18.4505 41.334 11.7627 41.334 7.90386Z" stroke="#FCC436" stroke-width="0.820339" stroke-miterlimit="10"/>
<mask id="path-2-inside-1_23_2584" fill="white">
<path d="M41.334 7.90386C41.334 4.04507 38.0094 0.00785174 38.0094 1.21871C38.0094 2.42957 38.6243 18.5108 38.6243 18.5108L38.0094 29.0269C38.0094 29.7441 38.5908 30.3255 39.308 30.3255C40.0252 30.3255 40.6066 29.7441 40.6066 29.0269L40.2631 18.4505C40.2631 18.4505 41.334 11.7627 41.334 7.90386Z"/>
</mask>
<path d="M38.6243 18.5108L42.719 18.7503L42.7306 18.5523L42.723 18.3541L38.6243 18.5108ZM38.0094 29.0269L33.9147 28.7875L33.9077 28.9071V29.0269H38.0094ZM40.6066 29.0269H44.7082V28.9604L44.7061 28.8938L40.6066 29.0269ZM40.2631 18.4505L36.213 17.8019L36.1508 18.1904L36.1636 18.5836L40.2631 18.4505ZM45.4357 7.90386C45.4357 4.92781 44.2103 2.19614 43.1575 0.498499C42.6399 -0.336273 41.9674 -1.2418 41.206 -1.89779C41 -2.07525 40.6995 -2.31139 40.318 -2.52472C40.0018 -2.7015 39.2572 -3.07782 38.2446 -3.10061C36.9607 -3.12951 35.5381 -2.56044 34.6492 -1.24606C33.9565 -0.22197 33.9077 0.801142 33.9077 1.21871H42.1111C42.1111 1.48492 42.0882 2.39768 41.4443 3.34976C40.604 4.59214 39.253 5.12755 38.06 5.1007C37.1382 5.07995 36.504 4.74139 36.3145 4.6354C36.0595 4.49287 35.9019 4.36058 35.8518 4.31738C35.7137 4.19839 35.8724 4.31631 36.1859 4.82183C36.7954 5.80478 37.2323 7.02112 37.2323 7.90386H45.4357ZM33.9077 1.21871C33.9077 1.92396 34.067 6.3726 34.218 10.4699C34.2949 12.5574 34.3718 14.6067 34.4295 16.134C34.4583 16.8977 34.4824 17.531 34.4992 17.9734C34.5076 18.1946 34.5142 18.3681 34.5187 18.4863C34.521 18.5454 34.5227 18.5907 34.5239 18.6212C34.5245 18.6365 34.5249 18.6481 34.5252 18.6558C34.5253 18.6597 34.5255 18.6626 34.5255 18.6646C34.5256 18.6656 34.5256 18.6663 34.5256 18.6668C34.5256 18.6671 34.5256 18.6673 34.5256 18.6674C34.5256 18.6675 34.5256 18.6676 38.6243 18.5108C42.723 18.3541 42.723 18.3541 42.723 18.3539C42.723 18.3538 42.723 18.3536 42.723 18.3534C42.723 18.3529 42.723 18.3522 42.7229 18.3512C42.7229 18.3493 42.7227 18.3464 42.7226 18.3425C42.7223 18.3348 42.7219 18.3233 42.7213 18.3081C42.7201 18.2777 42.7184 18.2326 42.7161 18.1736C42.7116 18.0557 42.705 17.8825 42.6966 17.6616C42.6798 17.2198 42.6558 16.5873 42.627 15.8244C42.5694 14.2986 42.4926 12.252 42.4158 10.1678C42.339 8.083 42.2622 5.96334 42.2048 4.29059C42.176 3.45372 42.1522 2.73266 42.1356 2.1853C42.1273 1.91127 42.121 1.68528 42.1168 1.51224C42.1147 1.4257 42.1132 1.35607 42.1122 1.30248C42.1117 1.27584 42.1114 1.25516 42.1113 1.23973C42.1111 1.22358 42.1111 1.21739 42.1111 1.21871H33.9077ZM34.5296 18.2714L33.9147 28.7875L42.1041 29.2664L42.719 18.7503L34.5296 18.2714ZM33.9077 29.0269C33.9077 32.0094 36.3255 34.4272 39.308 34.4272V26.2238C40.8561 26.2238 42.1111 27.4788 42.1111 29.0269H33.9077ZM39.308 34.4272C42.2905 34.4272 44.7082 32.0094 44.7082 29.0269H36.5049C36.5049 27.4788 37.7599 26.2238 39.308 26.2238V34.4272ZM44.7061 28.8938L44.3627 18.3174L36.1636 18.5836L36.507 29.16L44.7061 28.8938ZM40.2631 18.4505C44.3132 19.099 44.3133 19.0988 44.3133 19.0985C44.3133 19.0984 44.3134 19.0982 44.3134 19.098C44.3135 19.0975 44.3136 19.097 44.3137 19.0963C44.3139 19.095 44.3141 19.0933 44.3145 19.0912C44.3152 19.087 44.3161 19.0812 44.3172 19.0738C44.3196 19.0591 44.3229 19.038 44.3272 19.011C44.3357 18.9569 44.3478 18.8788 44.3632 18.779C44.3939 18.5795 44.4373 18.2929 44.4891 17.9381C44.5926 17.2294 44.7307 16.2429 44.869 15.13C45.1384 12.9623 45.4357 10.1077 45.4357 7.90386H37.2323C37.2323 9.55881 36.9942 11.9776 36.7282 14.1184C36.5988 15.1598 36.4691 16.0865 36.3719 16.7523C36.3233 17.0847 36.283 17.3508 36.2551 17.5321C36.2412 17.6227 36.2304 17.6921 36.2232 17.7378C36.2196 17.7607 36.2169 17.7777 36.2152 17.7885C36.2143 17.7939 36.2137 17.7977 36.2134 17.8C36.2132 17.8011 36.2131 17.8018 36.213 17.8022C36.213 17.8023 36.213 17.8024 36.213 17.8024C36.213 17.8023 36.213 17.8022 36.213 17.8022C36.213 17.8021 36.213 17.8019 40.2631 18.4505Z" fill="#FCC436" mask="url(#path-2-inside-1_23_2584)"/>
<path d="M5.81844 1.69908C5.81844 1.69908 5.89084 4.39883 5.89084 6.96209C5.89084 8.88457 5.30693 10.0919 4.4748 10.5754L4.49331 29.027C4.49331 29.7442 3.91193 30.3255 3.19473 30.3255C2.47752 30.3255 1.89615 29.7442 1.89615 29.027L2.42259 10.5792C1.58696 10.0982 1 8.88957 1 6.96209C1 4.39883 1.0724 1.69908 1.0724 1.69908" stroke="#FCC436" stroke-width="1.29858" stroke-miterlimit="10" stroke-linecap="round" stroke-linejoin="round"/>
<path d="M3.44543 1.6991V7.92247" stroke="#FCC436" stroke-width="1.29858" stroke-miterlimit="10" stroke-linecap="round" stroke-linejoin="round"/>
<path d="M21.7772 28.5581C28.9341 28.5581 34.7359 22.7563 34.7359 15.5994C34.7359 8.44251 28.9341 2.6407 21.7772 2.6407C14.6203 2.6407 8.81848 8.44251 8.81848 15.5994C8.81848 22.7563 14.6203 28.5581 21.7772 28.5581Z" stroke="#FCC436" stroke-width="2.46102" stroke-miterlimit="10" stroke-linecap="round" stroke-linejoin="round"/>
<path d="M21.7799 23.515C26.1366 23.515 29.6684 19.9832 29.6684 15.6265C29.6684 11.2697 26.1366 7.73792 21.7799 7.73792C17.4232 7.73792 13.8914 11.2697 13.8914 15.6265C13.8914 19.9832 17.4232 23.515 21.7799 23.515Z" fill="#FCC436"/>
<path d="M1 7.56271H5.92203L5.10169 10.8441L4.72499 28.926C4.70639 29.8185 3.97763 30.5322 3.08502 30.5322V30.5322C2.16572 30.5322 1.42591 29.7768 1.44505 28.8577L1.82034 10.8441L1 7.56271Z" fill="#FCC436"/>
</svg>
