<svg width="34" height="33" viewBox="0 0 34 33" fill="none" xmlns="http://www.w3.org/2000/svg">
<path d="M12.479 7.2439C12.1201 7.2439 11.8291 7.53487 11.8291 7.89381V14.3929C11.8291 17.0447 13.8144 19.2328 16.3797 19.5522C16.3789 19.5654 16.3785 19.5787 16.3785 19.5922V24.1416H14.4287C14.0698 24.1416 13.7788 24.4326 13.7788 24.7915C13.7788 25.1504 14.0698 25.4414 14.4287 25.4414H19.628C19.9869 25.4414 20.2779 25.1504 20.2779 24.7915C20.2779 24.4326 19.9869 24.1416 19.628 24.1416H17.6783V19.5922C17.6783 19.5787 17.6779 19.5654 17.6771 19.5522C20.2425 19.2328 22.2277 17.0447 22.2277 14.3929V7.89381C22.2277 7.53487 21.9366 7.2439 21.5778 7.2439H12.479ZM13.1289 11.1434V8.54372H20.9278V11.1434H13.1289ZM20.5811 14.1371C20.4979 14.8873 20.1793 15.592 19.6709 16.15C19.1626 16.7081 18.4907 17.0909 17.7514 17.2436C17.3999 17.3162 17.0561 17.0901 16.9835 16.7386C16.9109 16.3871 17.137 16.0432 17.4885 15.9706C17.9589 15.8735 18.3865 15.6299 18.71 15.2747C19.0335 14.9196 19.2362 14.4712 19.2892 13.9938C19.3288 13.637 19.6501 13.3799 20.0068 13.4195C20.3636 13.459 20.6207 13.7803 20.5811 14.1371Z" fill="#FCC436"/>
<rect x="0.67184" y="0.659999" width="31.68" height="31.68" rx="15.84" stroke="#FCC436" stroke-width="1.32"/>
</svg>
