<svg width="23" height="21" viewBox="0 0 23 21" fill="none" xmlns="http://www.w3.org/2000/svg">
<path d="M11.445 20.2987C11.3342 20.2987 11.2252 20.2703 11.1285 20.2161C9.15967 19.0629 7.31189 17.7145 5.61306 16.1914C1.88846 12.8393 0 9.49871 0 6.26236C0.00038358 4.92285 0.43014 3.61875 1.22619 2.54145C2.02224 1.46415 3.14266 0.67039 4.423 0.276685C5.70334 -0.11702 7.07617 -0.0899412 8.33999 0.353948C9.6038 0.797837 10.6921 1.63516 11.445 2.74301C12.1979 1.63516 13.2862 0.797837 14.55 0.353948C15.8138 -0.0899412 17.1867 -0.11702 18.467 0.276685C19.7473 0.67039 20.8678 1.46415 21.6638 2.54145C22.4599 3.61875 22.8896 4.92285 22.89 6.26236C22.89 9.49871 21.0015 12.8393 17.2769 16.1914C15.5781 17.7145 13.7303 19.0629 11.7615 20.2161C11.6648 20.2703 11.5558 20.2987 11.445 20.2987Z" fill="#FCC436"/>
</svg>
