<svg width="34" height="33" viewBox="0 0 34 33" fill="none" xmlns="http://www.w3.org/2000/svg">
<path d="M25.6742 14.5299V23.731C25.6742 24.0591 25.4084 24.3246 25.0805 24.3246H7.86547C7.53765 24.3246 7.27185 24.0591 7.27185 23.731V14.5299C7.27185 14.2023 7.53765 13.9362 7.86547 13.9362L17.9559 12.322" stroke="#FCC436" stroke-width="1.98" stroke-miterlimit="10" stroke-linecap="round" stroke-linejoin="round"/>
<path d="M23.0084 11.577C24.5054 11.7285 25.6741 12.9931 25.6741 14.5299" stroke="#FCC436" stroke-width="1.98" stroke-miterlimit="10" stroke-linecap="round" stroke-linejoin="round"/>
<path d="M7.27186 14.27L7.56867 18.0915C8.38838 18.0915 9.05273 17.4272 9.05273 16.6078C9.05273 15.7881 9.71708 15.1234 10.5368 15.1234C11.3565 15.1234 12.0208 15.7881 12.0208 16.6078C12.0208 17.4272 12.6852 18.0915 13.5049 18.0915C14.3246 18.0915 14.989 17.4272 14.989 16.6078C14.989 15.7881 15.6533 15.1234 16.473 15.1234C17.2927 15.1234 17.9571 15.7881 17.9571 16.6078C17.9571 17.4272 18.6214 18.0915 19.4411 18.0915C20.2608 18.0915 20.9252 17.4272 20.9252 16.6078C20.9252 15.7881 21.5895 15.1234 22.4092 15.1234C23.2289 15.1234 23.8933 15.7881 23.8933 16.6078C23.8933 17.4272 24.5577 18.0915 25.3774 18.0915L25.0919 11.96" fill="#FCC436"/>
<path d="M7.27185 20.9933H25.6742" stroke="#FCC436" stroke-width="1.98" stroke-miterlimit="10" stroke-linecap="round" stroke-linejoin="round"/>
<path d="M20.48 14.036C21.8464 14.036 22.954 12.9283 22.954 11.5619C22.954 10.1956 21.8464 9.08788 20.48 9.08788C19.1136 9.08788 18.0059 10.1956 18.0059 11.5619C18.0059 12.9283 19.1136 14.036 20.48 14.036Z" stroke="#FCC436" stroke-width="1.98" stroke-miterlimit="10" stroke-linecap="round" stroke-linejoin="round"/>
<path d="M20.4799 10.9681C20.4799 9.32885 21.8086 8 23.448 8" stroke="#FCC436" stroke-width="1.32" stroke-miterlimit="10" stroke-linecap="round" stroke-linejoin="round"/>
<rect x="0.67184" y="0.659999" width="31.68" height="31.68" rx="15.84" stroke="#FCC436" stroke-width="1.32"/>
</svg>
