<svg width="67" height="67" viewBox="0 0 67 67" fill="none" xmlns="http://www.w3.org/2000/svg">
<path d="M38.0357 44.5587C38.0357 47.0118 36.6027 49 34.1496 49H24.9896C22.5365 49 21.1035 47.0118 21.1035 44.5587" stroke="#FCC436" stroke-width="2.22062" stroke-miterlimit="10" stroke-linecap="round"/>
<path d="M39.0072 39.0072C40.2334 39.0072 41.2279 40.2501 41.2279 41.783C41.2279 43.3159 40.2334 44.5587 39.0072 44.5587H20.132C18.9058 44.5587 17.9114 43.3159 17.9114 41.783C17.9114 40.2501 18.9058 39.0072 20.132 39.0072" stroke="#FCC436" stroke-width="2.22062" stroke-miterlimit="10" stroke-linecap="round"/>
<path d="M39.5624 39.0072H28.1339C27.9868 39.0073 27.8458 39.0657 27.7418 39.1696L25.8799 41.0314C25.8541 41.0572 25.8235 41.0777 25.7898 41.0917C25.7561 41.1056 25.72 41.1128 25.6835 41.1128C25.6471 41.1128 25.6109 41.1056 25.5772 41.0917C25.5435 41.0777 25.5129 41.0572 25.4872 41.0314L23.6253 39.1696C23.5213 39.0657 23.3803 39.0073 23.2332 39.0072H19.5768C19.1351 39.0072 18.7115 38.8317 18.3992 38.5194C18.0868 38.2071 17.9114 37.7834 17.9114 37.3417C17.9114 36.9 18.0868 36.4764 18.3992 36.1641C18.7115 35.8517 19.1351 35.6763 19.5768 35.6763H39.5624C40.0041 35.6763 40.4277 35.8517 40.7401 36.1641C41.0524 36.4764 41.2279 36.9 41.2279 37.3417C41.2279 37.7834 41.0524 38.2071 40.7401 38.5194C40.4277 38.8317 40.0041 39.0072 39.5624 39.0072Z" fill="#FCC436" stroke="#FCC436" stroke-width="2.22062" stroke-miterlimit="10" stroke-linecap="round"/>
<path d="M20.1318 34.8435V34.8283C20.1318 31.0116 23.2546 29.0144 27.0713 29.0144H32.0677C35.8843 29.0144 39.0071 31.0268 39.0071 34.8435V34.8283" stroke="#FCC436" stroke-width="2.22062" stroke-miterlimit="10" stroke-linecap="round"/>
<path d="M32.4148 23.4629L32.9311 27.902" stroke="#FCC436" stroke-width="2.22062" stroke-miterlimit="10" stroke-linecap="round"/>
<path d="M33.4556 49H43.1229C43.6831 48.9999 44.2226 48.7882 44.6333 48.4071C45.044 48.0261 45.2954 47.5039 45.3373 46.9452L47.8202 23.4629" stroke="#FCC436" stroke-width="2.22062" stroke-miterlimit="10" stroke-linecap="round"/>
<path d="M41.2279 23.4629L42.3382 19.0217L45.5997 17.9113" stroke="#FCC436" stroke-width="2.22062" stroke-linecap="round" stroke-linejoin="round"/>
<path d="M31.235 23.4629H48.9999" stroke="#FCC436" stroke-width="2.22062" stroke-miterlimit="10" stroke-linecap="round"/>
<rect x="1.3344" y="1.61464" width="64.051" height="64.051" rx="32.0255" stroke="#FCC436" stroke-width="2.66879"/>
</svg>
