<svg width="46" height="46" viewBox="0 0 46 46" fill="none" xmlns="http://www.w3.org/2000/svg">
<path d="M32.2922 19.7364V30.9394C32.2922 31.6862 32.028 32.3239 31.4995 32.8523C30.9711 33.3808 30.3334 33.645 29.5866 33.645H16.0584C15.3116 33.645 14.6739 33.3808 14.1455 32.8523C13.617 32.3239 13.3528 31.6862 13.3528 30.9394V19.7364C12.9442 19.4968 12.6165 19.1727 12.3699 18.7641C12.1233 18.3554 12 17.9045 12 17.4113C12 16.4248 12.4826 15.5194 13.4479 14.6951C14.4132 13.8707 15.7273 13.2154 17.3901 12.7293C19.0529 12.2431 20.8637 12 22.8225 12C24.7813 12 26.5921 12.2431 28.2549 12.7293C29.9177 13.2154 31.2318 13.8707 32.1971 14.6951C33.1624 15.5194 33.645 16.4248 33.645 17.4113C33.645 17.9045 33.5217 18.3554 33.2751 18.7641C33.0285 19.1727 32.7009 19.4968 32.2922 19.7364Z" fill="#FCC436"/>
<path d="M22.4559 23.0859C22.4906 22.9217 22.5884 22.7578 22.7052 22.6486C22.7619 22.5955 22.8092 22.5685 22.8369 22.5574L22.8421 22.5554C23.1553 22.606 23.4561 22.4021 23.5223 22.0884C23.5905 21.7652 23.3838 21.4479 23.0606 21.3796C22.5799 21.2782 22.1524 21.5276 21.888 21.7749C21.6049 22.0398 21.3744 22.4178 21.2855 22.8388C21.2172 23.1621 21.424 23.4794 21.7472 23.5476C22.0704 23.6158 22.3877 23.4091 22.4559 23.0859V23.0859Z" fill="white"/>
<path d="M17.4655 20.2267C15.3276 21.9298 15.2724 24.8155 16.2743 26.7596C16.9476 28.0661 18.2425 29.2289 20.1848 29.2289C20.6667 29.2289 21.0143 29.2157 21.288 29.2053C22.1172 29.1738 22.2677 29.1681 23.422 29.634C24.9573 30.2536 26.5899 30.0697 27.9541 29.2094C29.1818 28.4352 29.8864 26.6375 29.767 25.1786C29.7036 24.4053 29.7729 24.0899 29.852 23.7299C29.9221 23.4108 30 23.0566 30 22.3172C30 20.7437 29.5338 19.7406 29.0677 18.9202C28.6016 18.0997 28.095 17.2869 26.6593 16.3723C25.48 15.6212 23.2463 15.2613 21.4797 16.2417C20.1848 16.9603 19.5374 17.6136 18.7604 18.9202C18.4663 19.4148 18.1842 19.6542 17.4655 20.2267V20.2267ZM27.129 23.1814C27.129 25.3615 25.3616 27.129 23.1814 27.129C21.0012 27.129 19.2338 25.3615 19.2338 23.1814C19.2338 21.0012 21.0012 19.2338 23.1814 19.2338C25.3616 19.2338 27.129 21.0012 27.129 23.1814V23.1814Z" fill="white"/>
<rect x="0.905605" y="0.905605" width="43.469" height="43.469" rx="21.7345" stroke="#FCC436" stroke-width="1.81121"/>
</svg>
