<svg width="46" height="46" viewBox="0 0 46 46" fill="none" xmlns="http://www.w3.org/2000/svg">
<rect x="0.905605" y="0.905605" width="43.469" height="43.469" rx="21.7345" stroke="#FCC436" stroke-width="1.81121"/>
<path d="M17.0742 15.6895V12.2019C17.0742 11.9707 17.1661 11.7489 17.3296 11.5854C17.4931 11.4219 17.7149 11.33 17.9461 11.33C18.1774 11.33 18.3991 11.4219 18.5627 11.5854C18.7262 11.7489 18.818 11.9707 18.818 12.2019V15.6895C18.818 15.9207 18.7262 16.1425 18.5627 16.306C18.3991 16.4695 18.1774 16.5614 17.9461 16.5614C17.7149 16.5614 17.4931 16.4695 17.3296 16.306C17.1661 16.1425 17.0742 15.9207 17.0742 15.6895ZM21.4337 16.5614C21.5482 16.5614 21.6616 16.5389 21.7674 16.495C21.8732 16.4512 21.9693 16.387 22.0503 16.306C22.1312 16.2251 22.1954 16.129 22.2393 16.0232C22.2831 15.9174 22.3056 15.804 22.3056 15.6895V12.2019C22.3056 11.9707 22.2138 11.7489 22.0502 11.5854C21.8867 11.4219 21.665 11.33 21.4337 11.33C21.2025 11.33 20.9807 11.4219 20.8172 11.5854C20.6537 11.7489 20.5618 11.9707 20.5618 12.2019V15.6895C20.5618 15.804 20.5844 15.9174 20.6282 16.0232C20.672 16.129 20.7362 16.2251 20.8172 16.306C20.8982 16.387 20.9943 16.4512 21.1001 16.495C21.2058 16.5389 21.3192 16.5614 21.4337 16.5614ZM24.9213 16.5614C25.0358 16.5614 25.1492 16.5389 25.255 16.495C25.3608 16.4512 25.4569 16.387 25.5378 16.306C25.6188 16.2251 25.683 16.129 25.7268 16.0232C25.7707 15.9174 25.7932 15.804 25.7932 15.6895V12.2019C25.7932 11.9707 25.7014 11.7489 25.5378 11.5854C25.3743 11.4219 25.1526 11.33 24.9213 11.33C24.6901 11.33 24.4683 11.4219 24.3048 11.5854C24.1413 11.7489 24.0494 11.9707 24.0494 12.2019V15.6895C24.0494 15.804 24.072 15.9174 24.1158 16.0232C24.1596 16.129 24.2238 16.2251 24.3048 16.306C24.3857 16.387 24.4819 16.4512 24.5876 16.495C24.6934 16.5389 24.8068 16.5614 24.9213 16.5614ZM35.3841 22.6647V23.5366C35.3827 24.6453 34.9594 25.7119 34.2002 26.5198C33.4409 27.3278 32.4027 27.8165 31.2962 27.8868C30.7002 29.5691 29.6866 31.0724 28.3505 32.2556H31.0246C31.2558 32.2556 31.4776 32.3474 31.6411 32.5109C31.8046 32.6745 31.8965 32.8962 31.8965 33.1275C31.8965 33.3587 31.8046 33.5805 31.6411 33.744C31.4776 33.9075 31.2558 33.9994 31.0246 33.9994H25.4467C25.4426 33.9994 25.4385 34 25.4344 34C25.4313 34 25.4283 33.9994 25.4252 33.9994H17.4185C17.4135 33.9993 17.4086 33.9995 17.4037 33.9994H11.8428C11.6116 33.9994 11.3898 33.9075 11.2263 33.744C11.0628 33.5805 10.9709 33.3587 10.9709 33.1275C10.9709 32.8962 11.0628 32.6745 11.2263 32.5109C11.3898 32.3474 11.6116 32.2556 11.8428 32.2556H14.517C13.4047 31.2726 12.5136 30.065 11.9023 28.7124C11.2911 27.3597 10.9736 25.8928 10.9709 24.4085V19.1771C10.9709 19.0626 10.9935 18.9492 11.0373 18.8434C11.0811 18.7376 11.1453 18.6415 11.2263 18.5606C11.3073 18.4796 11.4034 18.4154 11.5092 18.3716C11.615 18.3277 11.7283 18.3052 11.8428 18.3052H31.0246C32.1804 18.3065 33.2885 18.7662 34.1058 19.5835C34.9231 20.4008 35.3828 21.5089 35.3841 22.6647ZM30.1527 20.049H12.7147V24.4085C12.718 26.0455 13.1805 27.6487 14.0497 29.0359C14.9189 30.4231 16.1598 31.5386 17.6315 32.2556H25.236C26.3357 31.7196 27.3109 30.959 28.0986 30.0229C28.8864 29.0869 29.4691 27.9961 29.8093 26.8209C29.8149 26.7975 29.8211 26.7743 29.8286 26.7517C30.0432 25.9891 30.1522 25.2007 30.1527 24.4085V20.049ZM33.6403 22.6647C33.6396 22.124 33.4716 21.5967 33.1594 21.1553C32.8472 20.7138 32.4061 20.3798 31.8965 20.199V24.4085C31.896 24.9565 31.8522 25.5037 31.7654 26.0448C32.3063 25.8843 32.781 25.5536 33.1188 25.1016C33.4566 24.6497 33.6395 24.1008 33.6403 23.5366V22.6647Z" fill="#FCC436" stroke="#FCC436"/>
</svg>
