<svg width="67" height="67" viewBox="0 0 67 67" fill="none" xmlns="http://www.w3.org/2000/svg">
<path d="M32.1771 38.355V45.9695H27.6653H27.5627V46.072V48.1229V48.2254H27.6653H38.9449H39.0474V48.1229V46.072V45.9695H38.9449H34.433V38.355L45.6859 26.0304L45.7127 26.0011V25.9613V23V22.8975H45.6102H21H20.8975V23V25.9613V26.0011L20.9243 26.0304L32.1771 38.355ZM23.1783 25.1534H43.4318L40.3422 28.5373H26.268L23.1783 25.1534ZM28.3277 30.7932H38.2824L33.3202 36.228H33.2899L28.3277 30.7932Z" fill="#FCC436" stroke="#FCC436" stroke-width="0.205085"/>
<path d="M33.305 39.4068L26.2007 30.178L40.4094 30.178L33.305 39.4068Z" fill="#FCC436"/>
<rect x="1.3344" y="1.61464" width="64.051" height="64.051" rx="32.0255" stroke="#FCC436" stroke-width="2.66879"/>
</svg>
