<svg width="67" height="67" viewBox="0 0 67 67" fill="none" xmlns="http://www.w3.org/2000/svg">
<path d="M53.334 25.9039C53.334 22.0451 50.0094 18.0079 50.0094 19.2187C50.0094 20.4296 50.6243 36.5108 50.6243 36.5108L50.0094 47.0269C50.0094 47.7441 50.5908 48.3255 51.308 48.3255C52.0252 48.3255 52.6066 47.7441 52.6066 47.0269L52.2631 36.4505C52.2631 36.4505 53.334 29.7627 53.334 25.9039Z" stroke="#FCC436" stroke-width="0.820339" stroke-miterlimit="10"/>
<mask id="path-2-inside-1_23_3699" fill="white">
<path d="M53.334 25.9039C53.334 22.0451 50.0094 18.0079 50.0094 19.2187C50.0094 20.4296 50.6243 36.5108 50.6243 36.5108L50.0094 47.0269C50.0094 47.7441 50.5908 48.3255 51.308 48.3255C52.0252 48.3255 52.6066 47.7441 52.6066 47.0269L52.2631 36.4505C52.2631 36.4505 53.334 29.7627 53.334 25.9039Z"/>
</mask>
<path d="M50.6243 36.5108L54.719 36.7503L54.7306 36.5523L54.723 36.3541L50.6243 36.5108ZM50.0094 47.0269L45.9147 46.7875L45.9077 46.9071V47.0269H50.0094ZM52.6066 47.0269H56.7082V46.9604L56.7061 46.8938L52.6066 47.0269ZM52.2631 36.4505L48.213 35.8019L48.1508 36.1904L48.1636 36.5836L52.2631 36.4505ZM57.4357 25.9039C57.4357 22.9278 56.2103 20.1961 55.1575 18.4985C54.6399 17.6637 53.9674 16.7582 53.206 16.1022C53 15.9248 52.6995 15.6886 52.318 15.4753C52.0018 15.2985 51.2572 14.9222 50.2446 14.8994C48.9607 14.8705 47.5381 15.4396 46.6492 16.7539C45.9565 17.778 45.9077 18.8011 45.9077 19.2187H54.1111C54.1111 19.4849 54.0882 20.3977 53.4443 21.3498C52.604 22.5921 51.253 23.1276 50.06 23.1007C49.1382 23.0799 48.504 22.7414 48.3145 22.6354C48.0595 22.4929 47.9019 22.3606 47.8518 22.3174C47.7137 22.1984 47.8724 22.3163 48.1859 22.8218C48.7954 23.8048 49.2323 25.0211 49.2323 25.9039H57.4357ZM45.9077 19.2187C45.9077 19.924 46.067 24.3726 46.218 28.4699C46.2949 30.5574 46.3718 32.6067 46.4295 34.134C46.4583 34.8977 46.4824 35.531 46.4992 35.9734C46.5076 36.1946 46.5142 36.3681 46.5187 36.4863C46.521 36.5454 46.5227 36.5907 46.5239 36.6212C46.5245 36.6365 46.5249 36.6481 46.5252 36.6558C46.5253 36.6597 46.5255 36.6626 46.5255 36.6646C46.5256 36.6656 46.5256 36.6663 46.5256 36.6668C46.5256 36.6671 46.5256 36.6673 46.5256 36.6674C46.5256 36.6675 46.5256 36.6676 50.6243 36.5108C54.723 36.3541 54.723 36.3541 54.723 36.3539C54.723 36.3538 54.723 36.3536 54.723 36.3534C54.723 36.3529 54.723 36.3522 54.7229 36.3512C54.7229 36.3493 54.7227 36.3464 54.7226 36.3425C54.7223 36.3348 54.7219 36.3233 54.7213 36.3081C54.7201 36.2777 54.7184 36.2326 54.7161 36.1736C54.7116 36.0557 54.705 35.8825 54.6966 35.6616C54.6798 35.2198 54.6558 34.5873 54.627 33.8244C54.5694 32.2986 54.4926 30.252 54.4158 28.1678C54.339 26.083 54.2622 23.9633 54.2048 22.2906C54.176 21.4537 54.1522 20.7327 54.1356 20.1853C54.1273 19.9113 54.121 19.6853 54.1168 19.5122C54.1147 19.4257 54.1132 19.3561 54.1122 19.3025C54.1117 19.2758 54.1114 19.2552 54.1113 19.2397C54.1111 19.2236 54.1111 19.2174 54.1111 19.2187H45.9077ZM46.5296 36.2714L45.9147 46.7875L54.1041 47.2664L54.719 36.7503L46.5296 36.2714ZM45.9077 47.0269C45.9077 50.0094 48.3255 52.4272 51.308 52.4272V44.2238C52.8561 44.2238 54.1111 45.4788 54.1111 47.0269H45.9077ZM51.308 52.4272C54.2905 52.4272 56.7082 50.0094 56.7082 47.0269H48.5049C48.5049 45.4788 49.7599 44.2238 51.308 44.2238V52.4272ZM56.7061 46.8938L56.3627 36.3174L48.1636 36.5836L48.507 47.16L56.7061 46.8938ZM52.2631 36.4505C56.3132 37.099 56.3133 37.0988 56.3133 37.0985C56.3133 37.0984 56.3134 37.0982 56.3134 37.098C56.3135 37.0975 56.3136 37.097 56.3137 37.0963C56.3139 37.095 56.3141 37.0933 56.3145 37.0912C56.3152 37.087 56.3161 37.0812 56.3172 37.0738C56.3196 37.0591 56.3229 37.038 56.3272 37.011C56.3357 36.9569 56.3478 36.8788 56.3632 36.779C56.3939 36.5795 56.4373 36.2929 56.4891 35.9381C56.5926 35.2294 56.7307 34.2429 56.869 33.13C57.1384 30.9623 57.4357 28.1077 57.4357 25.9039H49.2323C49.2323 27.5588 48.9942 29.9776 48.7282 32.1184C48.5988 33.1598 48.4691 34.0865 48.3719 34.7523C48.3233 35.0847 48.283 35.3508 48.2551 35.5321C48.2412 35.6227 48.2304 35.6921 48.2232 35.7378C48.2196 35.7607 48.2169 35.7777 48.2152 35.7885C48.2143 35.7939 48.2137 35.7977 48.2134 35.8C48.2132 35.8011 48.2131 35.8018 48.213 35.8022C48.213 35.8023 48.213 35.8024 48.213 35.8024C48.213 35.8023 48.213 35.8022 48.213 35.8022C48.213 35.8021 48.213 35.8019 52.2631 36.4505Z" fill="#FCC436" mask="url(#path-2-inside-1_23_3699)"/>
<path d="M17.8184 19.6991C17.8184 19.6991 17.8908 22.3988 17.8908 24.9621C17.8908 26.8846 17.3069 28.0918 16.4748 28.5754L16.4933 47.0269C16.4933 47.7441 15.9119 48.3255 15.1947 48.3255C14.4775 48.3255 13.8961 47.7441 13.8961 47.0269L14.4226 28.5792C13.587 28.0982 13 26.8896 13 24.9621C13 22.3988 13.0724 19.6991 13.0724 19.6991" stroke="#FCC436" stroke-width="1.29858" stroke-miterlimit="10" stroke-linecap="round" stroke-linejoin="round"/>
<path d="M15.4454 19.6991V25.9224" stroke="#FCC436" stroke-width="1.29858" stroke-miterlimit="10" stroke-linecap="round" stroke-linejoin="round"/>
<path d="M33.7772 46.5581C40.9341 46.5581 46.7359 40.7563 46.7359 33.5994C46.7359 26.4425 40.9341 20.6407 33.7772 20.6407C26.6203 20.6407 20.8185 26.4425 20.8185 33.5994C20.8185 40.7563 26.6203 46.5581 33.7772 46.5581Z" stroke="#FCC436" stroke-width="2.46102" stroke-miterlimit="10" stroke-linecap="round" stroke-linejoin="round"/>
<path d="M33.7799 41.515C38.1366 41.515 41.6684 37.9832 41.6684 33.6265C41.6684 29.2697 38.1366 25.7379 33.7799 25.7379C29.4232 25.7379 25.8914 29.2697 25.8914 33.6265C25.8914 37.9832 29.4232 41.515 33.7799 41.515Z" fill="#FCC436"/>
<path d="M13 25.5627H17.922L17.1017 28.8441L16.725 46.926C16.7064 47.8185 15.9776 48.5322 15.085 48.5322C14.1657 48.5322 13.4259 47.7768 13.4451 46.8577L13.8203 28.8441L13 25.5627Z" fill="#FCC436"/>
<rect x="1.61467" y="1.61464" width="64.051" height="64.051" rx="32.0255" stroke="#FCC436" stroke-width="2.66879"/>
</svg>
