<svg width="23" height="21" viewBox="0 0 23 21" fill="none" xmlns="http://www.w3.org/2000/svg">
<path d="M11.445 18.6584C9.72821 17.616 8.11138 16.4166 6.61536 15.0754C3.03596 11.8537 1.50017 8.88711 1.5 6.26279L11.445 18.6584ZM11.445 18.6584C13.1617 17.6161 14.7784 16.4168 16.2744 15.0757C19.854 11.8538 21.3898 8.88717 21.39 6.26279L11.445 18.6584ZM20.4574 3.43288C21.0628 4.25209 21.3896 5.24376 21.39 6.26236H1.5C1.50038 5.24376 1.82722 4.25209 2.43257 3.43288C3.038 2.61354 3.89013 2.00986 4.86388 1.71043C5.83763 1.411 6.88173 1.4316 7.84291 1.76919C8.8041 2.10679 9.63176 2.74361 10.2044 3.58618L11.445 5.41153L12.6856 3.58618C13.2582 2.74361 14.0859 2.10679 15.0471 1.76919C16.0083 1.4316 17.0524 1.411 18.0261 1.71043C18.9999 2.00986 19.852 2.61354 20.4574 3.43288Z" stroke="#FCC436" stroke-width="3"/>
</svg>
