<svg width="46" height="46" viewBox="0 0 46 46" fill="none" xmlns="http://www.w3.org/2000/svg">
<path d="M21.7609 12C20.6231 12 19.653 12.5314 18.9076 13.284C18.501 13.127 18.1158 12.913 17.6522 12.913C15.6442 12.913 14 14.5572 14 16.5652C14 17.5032 14.3816 18.3414 14.9701 18.9905C14.9344 19.0904 14.913 19.1974 14.913 19.3043V31.1739C14.913 32.6754 16.1506 33.913 17.6522 33.913H28.6087C30.1102 33.913 31.3478 32.6754 31.3478 31.1739V29.3478H32.2609C33.7624 29.3478 35 28.1102 35 26.6087V22.9565C35 21.455 33.7624 20.2174 32.2609 20.2174H31.3478V19.1332C31.355 19.0654 31.355 19.0012 31.3478 18.9334C31.9042 18.2914 32.2609 17.4747 32.2609 16.5652C32.2609 14.5572 30.6167 12.913 28.6087 12.913C27.9275 12.913 27.3247 13.1556 26.7826 13.4837C26.2405 13.1556 25.6377 12.913 24.9565 12.913C24.7211 12.913 24.5357 12.9844 24.3288 13.0272C23.6191 12.4316 22.7595 12 21.7609 12ZM19.6495 19.5326C20.2736 19.9214 20.9727 20.2174 21.7609 20.2174C21.8572 20.2174 21.9 20.171 21.9891 20.1603C21.9142 20.5134 21.9178 20.9664 21.8179 21.2731C21.6004 21.9436 21.3043 22.5856 21.3043 23.413C21.3043 25.1678 22.7452 26.6087 24.5 26.6087C26.2548 26.6087 27.6957 25.1678 27.6957 23.413C27.6957 22.5856 27.3996 21.94 27.1821 21.2731C27.0644 20.9093 27.0323 20.3957 26.9538 19.9606C27.5387 20.0961 27.8027 20.2174 28.6087 20.2174C28.9226 20.2174 29.2293 20.1496 29.5217 20.0747V20.8451C29.4682 21.0234 29.4682 21.2089 29.5217 21.3872V28.2636C29.4968 28.3849 29.4968 28.5132 29.5217 28.6345V31.1739C29.5217 31.6911 29.1258 32.087 28.6087 32.087H17.6522C17.135 32.087 16.7391 31.6911 16.7391 31.1739V20.0747C17.0316 20.1496 17.3383 20.2174 17.6522 20.2174C18.4047 20.2174 19.0681 19.9249 19.6495 19.5326ZM31.3478 22.0435H32.2609C32.778 22.0435 33.1739 22.4394 33.1739 22.9565V26.6087C33.1739 27.1258 32.778 27.5217 32.2609 27.5217H31.3478V22.0435Z" fill="#FCC436"/>
<rect x="0.905605" y="0.905605" width="43.469" height="43.469" rx="21.7345" stroke="#FCC436" stroke-width="1.81121"/>
</svg>
