<svg width="21" height="20" viewBox="0 0 21 20" fill="none" xmlns="http://www.w3.org/2000/svg">
<path fill-rule="evenodd" clip-rule="evenodd" d="M20.0158 3.99724C20.0152 3.4366 19.8969 2.88232 19.6684 2.37035C19.44 1.85838 19.1064 1.40015 18.6895 1.02536C18.2725 0.650573 17.7815 0.367602 17.2481 0.194795C16.7148 0.0219883 16.1511 -0.0367959 15.5935 0.022254C15.036 0.0813038 14.4971 0.25687 14.0118 0.537567C13.5265 0.818265 13.1056 1.19783 12.7764 1.65164C12.4472 2.10546 12.2171 2.62339 12.1009 3.17187C11.9848 3.72034 11.9852 4.2871 12.1021 4.83541L7.03007 7.37093C6.50818 6.77152 5.81959 6.34112 5.05211 6.13463C4.28462 5.92815 3.47303 5.95492 2.72083 6.21155C1.96862 6.46818 1.3099 6.94303 0.828655 7.57554C0.347412 8.20805 0.0654604 8.96957 0.0187563 9.76297C-0.0279478 10.5564 0.162712 11.3457 0.566422 12.0303C0.970133 12.7149 1.5686 13.2638 2.2855 13.6069C3.0024 13.95 3.80524 14.0718 4.59165 13.9568C5.37806 13.8418 6.11239 13.4951 6.70101 12.9611L12.0321 15.6266C11.9415 16.5956 12.2071 17.5643 12.7793 18.3515C13.3515 19.1387 14.191 19.6904 15.1407 19.9032C16.0903 20.116 17.0849 19.9754 17.9383 19.5077C18.7918 19.04 19.4454 18.2772 19.777 17.3623C20.1086 16.4473 20.0953 15.4429 19.7396 14.537C19.384 13.6312 18.7103 12.886 17.8448 12.441C16.9794 11.9961 15.9813 11.8818 15.0377 12.1197C14.094 12.3575 13.2694 12.9312 12.7182 13.7332L7.80523 11.2767C8.03501 10.5949 8.07647 9.86372 7.92526 9.1603L12.9973 6.62478C13.5324 7.23942 14.2424 7.67602 15.0323 7.87617C15.8223 8.07631 16.6545 8.03046 17.4177 7.74474C18.1808 7.45903 18.8386 6.94707 19.3029 6.27737C19.7672 5.60766 20.0159 4.81215 20.0158 3.99724Z" fill="#FCC436"/>
</svg>
